name rise36.2859peak64.2979fall75.1499.mot
datacolumns 19
datarows 29
range 8.96997400000000 9.01663300000000
endheader
time	ground_force1_vx	ground_force1_vy	ground_force1_vz	ground_force1_px	ground_force1_py	ground_force1_pz	ground_force2_vx	ground_force2_vy	ground_force2_vz	ground_force2_px	ground_force2_py	ground_force2_pz	ground_torque1_x	ground_torque1_y	ground_torque1_z	ground_torque2_x	ground_torque2_y	ground_torque2_z	
8.96997400000000	-10.34028700000000	41.31386600000000	-9.77976800000000	0.35540200000000	0.00000000000000	0.07188100000000	-48.46199200000000	792.02687500000002	-54.11746100000000	0.16274800000000	0.00000000000000	-0.10020200000000	0.00000000000000	-7.25373100000000	0.00000000000000	0.00000000000000	-25.70128500000000	0.00000000000000	
8.97162900000000	-11.29529700000000	48.75455000000000	-11.02508300000000	0.35878400000000	0.00000000000000	0.07312200000000	-49.20085600000000	789.64073399999995	-53.65608200000000	0.16184300000000	0.00000000000000	-0.10008400000000	0.00000000000000	-8.24709600000000	0.00000000000000	0.00000000000000	-25.63243400000000	0.00000000000000	
8.97330200000000	-12.04402500000000	56.37864700000000	-12.16659300000000	0.36199300000000	0.00000000000000	0.07422000000000	-49.95046500000000	787.10024099999998	-53.17417200000000	0.16093800000000	0.00000000000000	-0.09996300000000	0.00000000000000	-9.18223600000000	0.00000000000000	0.00000000000000	-25.56283800000000	0.00000000000000	
8.97497200000000	-12.55887300000000	64.09601200000000	-13.17843200000000	0.36505100000000	0.00000000000000	0.07519900000000	-50.70978600000000	784.40236000000004	-52.67164900000000	0.16003400000000	0.00000000000000	-0.09983800000000	0.00000000000000	-10.03959000000000	0.00000000000000	0.00000000000000	-25.49233800000000	0.00000000000000	
8.97663100000000	-12.82412800000000	71.83669000000000	-14.04322700000000	0.36797400000000	0.00000000000000	0.07608000000000	-51.47770000000000	781.54406400000005	-52.14845000000000	0.15913200000000	0.00000000000000	-0.09971100000000	0.00000000000000	-10.80538200000000	0.00000000000000	0.00000000000000	-25.42075500000000	0.00000000000000	
8.97829600000000	-12.83571800000000	79.55336400000000	-14.75224000000000	0.37077800000000	0.00000000000000	0.07687900000000	-52.25299200000000	778.52234499999997	-51.60453900000000	0.15823200000000	0.00000000000000	-0.09958000000000	0.00000000000000	-11.47185900000000	0.00000000000000	0.00000000000000	-25.34789400000000	0.00000000000000	
8.97997300000000	-12.60006500000000	87.22152800000001	-15.30478200000000	0.37347300000000	0.00000000000000	0.07760800000000	-53.03435900000000	775.33421499999997	-51.03990600000000	0.15733400000000	0.00000000000000	-0.09944500000000	0.00000000000000	-12.03700300000000	0.00000000000000	0.00000000000000	-25.27354500000000	0.00000000000000	
8.98162900000000	-12.13226600000000	94.83774800000000	-15.70706800000000	0.37606700000000	0.00000000000000	0.07827700000000	-53.82040600000000	771.97671800000001	-50.45456800000000	0.15643900000000	0.00000000000000	-0.09930800000000	0.00000000000000	-12.50381500000000	0.00000000000000	0.00000000000000	-25.19748100000000	0.00000000000000	
8.98329800000000	-11.45388200000000	102.41647800000000	-15.97070600000000	0.37856800000000	0.00000000000000	0.07889500000000	-54.60965300000000	768.44693600000005	-49.84857200000000	0.15554800000000	0.00000000000000	-0.09916700000000	0.00000000000000	-12.87930600000000	0.00000000000000	0.00000000000000	-25.11946200000000	0.00000000000000	
8.98497100000000	-10.59057300000000	109.98595600000000	-16.11100300000000	0.38098200000000	0.00000000000000	0.07946800000000	-55.40053100000000	764.74199999999996	-49.22200000000000	0.15466000000000	0.00000000000000	-0.09902200000000	0.00000000000000	-13.17333700000000	0.00000000000000	0.00000000000000	-25.03923100000000	0.00000000000000	
8.98663400000000	-9.56981400000000	117.58367600000000	-16.14526600000000	0.38331400000000	0.00000000000000	0.08000200000000	-56.19138700000000	760.85910100000001	-48.57496400000000	0.15377700000000	0.00000000000000	-0.09887400000000	0.00000000000000	-13.39741500000000	0.00000000000000	0.00000000000000	-24.95652100000000	0.00000000000000	
8.98829600000000	-8.41884500000000	125.25187699999999	-16.09123700000000	0.38556800000000	0.00000000000000	0.08050200000000	-56.98048600000000	756.79550300000005	-47.90761700000000	0.15289800000000	0.00000000000000	-0.09872200000000	0.00000000000000	-13.56356500000000	0.00000000000000	0.00000000000000	-24.87105100000000	0.00000000000000	
8.98996300000000	-7.16299700000000	133.03340499999999	-15.96575500000000	0.38774900000000	0.00000000000000	0.08097200000000	-57.76601500000000	752.54855099999997	-47.22014500000000	0.15202400000000	0.00000000000000	-0.09856700000000	0.00000000000000	-13.68334900000000	0.00000000000000	0.00000000000000	-24.78252900000000	0.00000000000000	
8.99163400000000	-5.82444900000000	140.96821499999999	-15.78372500000000	0.38985800000000	0.00000000000000	0.08141600000000	-58.54608600000000	748.11569299999996	-46.51277700000000	0.15115500000000	0.00000000000000	-0.09840800000000	0.00000000000000	-13.76707900000000	0.00000000000000	0.00000000000000	-24.69065300000000	0.00000000000000	
8.99330200000000	-4.42143900000000	149.09066000000001	-15.55741000000000	0.39190100000000	0.00000000000000	0.08183500000000	-59.31873800000000	743.49448400000006	-45.78578100000000	0.15029200000000	0.00000000000000	-0.09824600000000	0.00000000000000	-13.82327200000000	0.00000000000000	0.00000000000000	-24.59511100000000	0.00000000000000	
8.99498000000000	-2.96790800000000	157.42764299999999	-15.29604800000000	0.39387700000000	0.00000000000000	0.08223300000000	-60.08194200000000	738.68261199999995	-45.03946700000000	0.14943600000000	0.00000000000000	-0.09807900000000	0.00000000000000	-13.85832000000000	0.00000000000000	0.00000000000000	-24.49558300000000	0.00000000000000	
8.99662800000000	-1.47353600000000	165.99761500000000	-15.00576500000000	0.39579100000000	0.00000000000000	0.08261100000000	-60.83360900000000	733.67790600000001	-44.27419200000000	0.14858500000000	0.00000000000000	-0.09790900000000	0.00000000000000	-13.87639200000000	0.00000000000000	0.00000000000000	-24.39174100000000	0.00000000000000	
8.99830300000000	0.05592200000000	174.81033300000001	-14.68973300000000	0.39764400000000	0.00000000000000	0.08297300000000	-61.57158900000000	728.47835599999996	-43.49035200000000	0.14774200000000	0.00000000000000	-0.09773600000000	0.00000000000000	-13.87950700000000	0.00000000000000	0.00000000000000	-24.28325200000000	0.00000000000000	
8.99998300000000	1.61806100000000	183.86727400000001	-14.34852400000000	0.39943700000000	0.00000000000000	0.08331800000000	-62.29368000000000	723.08212300000002	-42.68839200000000	0.14690600000000	0.00000000000000	-0.09755800000000	0.00000000000000	-13.86776600000000	0.00000000000000	0.00000000000000	-24.16977700000000	0.00000000000000	
9.00162900000000	3.21310800000000	193.16252700000001	-13.98059600000000	0.40117300000000	0.00000000000000	0.08364900000000	-62.99763500000000	717.48756200000003	-41.86880200000000	0.14607800000000	0.00000000000000	-0.09737700000000	0.00000000000000	-13.83968000000000	0.00000000000000	0.00000000000000	-24.05097400000000	0.00000000000000	
9.00329800000000	4.84314700000000	202.68404000000001	-13.58283800000000	0.40285300000000	0.00000000000000	0.08396700000000	-63.68116400000000	711.69322799999998	-41.03211900000000	0.14525900000000	0.00000000000000	-0.09719200000000	0.00000000000000	-13.79256300000000	0.00000000000000	0.00000000000000	-23.92649900000000	0.00000000000000	
9.00498000000000	6.51133900000000	212.41503299999999	-13.15114600000000	0.40447800000000	0.00000000000000	0.08427200000000	-64.34194300000000	705.69789300000002	-40.17892700000000	0.14444800000000	0.00000000000000	-0.09700300000000	0.00000000000000	-13.72294100000000	0.00000000000000	0.00000000000000	-23.79600600000000	0.00000000000000	
9.00663700000000	8.22121400000000	222.33546300000000	-12.68096300000000	0.40604900000000	0.00000000000000	0.08456700000000	-64.97762000000000	699.50055599999996	-39.30985800000000	0.14364600000000	0.00000000000000	-0.09681000000000	0.00000000000000	-13.62695300000000	0.00000000000000	0.00000000000000	-23.65915000000000	0.00000000000000	
9.00830400000000	9.97606100000000	232.42341700000000	-12.16775300000000	0.40756700000000	0.00000000000000	0.08485000000000	-65.58582300000000	693.10045200000002	-38.42559400000000	0.14285400000000	0.00000000000000	-0.09661400000000	0.00000000000000	-13.50070600000000	0.00000000000000	0.00000000000000	-23.51558800000000	0.00000000000000	
9.00997100000000	11.77845100000000	242.65634100000000	-11.60739900000000	0.40903400000000	0.00000000000000	0.08512500000000	-66.16416900000000	686.49706200000003	-37.52686200000000	0.14207200000000	0.00000000000000	-0.09641300000000	0.00000000000000	-13.34057500000000	0.00000000000000	0.00000000000000	-23.36498100000000	0.00000000000000	
9.01163300000000	13.62989600000000	253.01205800000000	-10.99648900000000	0.41045100000000	0.00000000000000	0.08539000000000	-66.71026900000000	679.69011999999998	-36.61444100000000	0.14130100000000	0.00000000000000	-0.09620900000000	0.00000000000000	-13.14343100000000	0.00000000000000	0.00000000000000	-23.20699700000000	0.00000000000000	
9.01330300000000	15.53065100000000	263.46953500000001	-10.33251400000000	0.41181700000000	0.00000000000000	0.08564600000000	-67.22173700000000	672.67961600000001	-35.68915900000000	0.14054100000000	0.00000000000000	-0.09600000000000	0.00000000000000	-12.90679400000000	0.00000000000000	0.00000000000000	-23.04130800000000	0.00000000000000	
9.01496300000000	17.47964100000000	274.00939599999998	-9.61396100000000	0.41313500000000	0.00000000000000	0.08589500000000	-67.69620399999999	665.46580600000004	-34.75189100000000	0.13979400000000	0.00000000000000	-0.09578800000000	0.00000000000000	-12.62892300000000	0.00000000000000	0.00000000000000	-22.86759800000000	0.00000000000000	
9.01663300000000	19.47449400000000	284.61419500000000	-8.84033000000000	0.41440500000000	0.00000000000000	0.08613600000000	-68.13132299999999	658.04921800000000	-33.80356400000000	0.13905900000000	0.00000000000000	-0.09557100000000	0.00000000000000	-12.30883000000000	0.00000000000000	0.00000000000000	-22.68556200000000	0.00000000000000	
